<?xml version="1.0" encoding="utf-8"?>
<!-- Generator: Adobe Illustrator 16.0.0, SVG Export Plug-In . SVG Version: 6.00 Build 0)  -->
<!DOCTYPE svg PUBLIC "-//W3C//DTD SVG 1.1//EN" "http://www.w3.org/Graphics/SVG/1.1/DTD/svg11.dtd">
<svg version="1.1" id="Layer_1" xmlns="http://www.w3.org/2000/svg" xmlns:xlink="http://www.w3.org/1999/xlink" x="0px" y="0px"
	 width="100px" height="100px" viewBox="0 0 100 100" enable-background="new 0 0 100 100" xml:space="preserve">
<g>
	<g>
		<path fill="#505050" d="M94.673,91.23H5.327c-1.448,0-2.622-1.174-2.622-2.621V24.994c0-1.448,1.173-2.622,2.622-2.622h89.346
			c1.447,0,2.622,1.174,2.622,2.622v63.615C97.295,90.057,96.12,91.23,94.673,91.23z M7.948,85.986h84.103v-58.37H7.948V85.986z"/>
	</g>
	<g>
		<path fill="#505050" d="M94.673,27.616H5.327c-1.448,0-2.622-1.173-2.622-2.622V11.39c0-1.448,1.173-2.622,2.622-2.622h89.346
			c1.447,0,2.622,1.173,2.622,2.622v13.604C97.295,26.442,96.12,27.616,94.673,27.616z M7.948,22.373h84.103v-8.361H7.948V22.373z"
			/>
	</g>
	<g>
		<circle fill="#505050" cx="13.024" cy="18.192" r="1.834"/>
	</g>
	<g>
		<circle fill="#505050" cx="18.511" cy="18.192" r="1.833"/>
	</g>
	<g>
		<circle fill="#505050" cx="23.997" cy="18.192" r="1.834"/>
	</g>
	<g>
		<g>
			<path fill="#505050" d="M36.815,65.218c-0.587,0-1.173-0.225-1.622-0.673l-7.138-7.137c-0.896-0.896-0.896-2.35,0-3.245
				l7.125-7.126c0.896-0.896,2.348-0.896,3.245,0c0.896,0.896,0.896,2.348,0,3.244l-5.504,5.506l5.516,5.516
				c0.896,0.896,0.896,2.348,0,3.243C37.989,64.993,37.402,65.218,36.815,65.218z"/>
		</g>
		<g>
			<path fill="#505050" d="M63.195,65.218c-0.588,0-1.176-0.225-1.622-0.673c-0.896-0.896-0.896-2.348,0-3.243l5.505-5.505
				l-5.518-5.517c-0.896-0.896-0.896-2.347,0-3.244c0.896-0.896,2.35-0.896,3.244,0l7.139,7.138c0.431,0.43,0.673,1.014,0.673,1.622
				s-0.242,1.19-0.673,1.621l-7.127,7.127C64.368,64.993,63.782,65.218,63.195,65.218z"/>
		</g>
		<g>
			<path fill="#505050" d="M46.713,70.518c-0.188,0-0.38-0.021-0.57-0.072c-1.228-0.312-1.968-1.562-1.655-2.788l5.83-22.84
				c0.314-1.228,1.569-1.967,2.79-1.656c1.229,0.313,1.972,1.563,1.658,2.791l-5.832,22.84
				C48.669,69.827,47.736,70.518,46.713,70.518z"/>
		</g>
	</g>
</g>
</svg>
