<?xml version="1.0" encoding="utf-8"?>
<!-- Generator: Adobe Illustrator 16.0.0, SVG Export Plug-In . SVG Version: 6.00 Build 0)  -->
<!DOCTYPE svg PUBLIC "-//W3C//DTD SVG 1.1//EN" "http://www.w3.org/Graphics/SVG/1.1/DTD/svg11.dtd">
<svg version="1.1" id="Layer_1" xmlns="http://www.w3.org/2000/svg" xmlns:xlink="http://www.w3.org/1999/xlink" x="0px" y="0px"
	 width="100px" height="100px" viewBox="0 0 100 100" enable-background="new 0 0 100 100" xml:space="preserve">
<g>
	<path fill="#505050" d="M96.216,30.102H79.182c-2.092,0-3.785,1.694-3.785,3.786V74.62c0,2.09,1.693,3.785,3.785,3.785h17.034
		c2.091,0,3.784-1.695,3.784-3.785V33.887C100,31.796,98.307,30.102,96.216,30.102z M85.836,34.118h3.725
		c0.277,0,0.504,0.226,0.504,0.505c0,0.278-0.227,0.503-0.504,0.503h-3.725c-0.279,0-0.505-0.225-0.505-0.503
		C85.331,34.344,85.557,34.118,85.836,34.118z M83.666,33.925c0.332,0,0.602,0.269,0.602,0.601s-0.27,0.601-0.602,0.601
		c-0.331,0-0.602-0.269-0.602-0.601S83.336,33.925,83.666,33.925z M87.697,76.361c-1.307,0-2.366-1.059-2.366-2.364
		s1.06-2.365,2.366-2.365c1.308,0,2.365,1.06,2.365,2.365S89.005,76.361,87.697,76.361z M98.107,69.945H77.289V38.56h20.818V69.945z
		"/>
	<g>
		<path fill="#505050" d="M39.045,74.98v0.685c0,0.379-0.307,0.687-0.685,0.687h-8.22c-0.379,0-0.685-0.308-0.685-0.687V74.98H0
			v1.369c0,0,0,2.056,2.055,2.056h64.39c2.055,0,2.055-2.056,2.055-2.056V74.98H39.045z"/>
		<path fill="#505050" d="M58.225,40.046h-47.95c-1.136,0-2.055,0.919-2.055,2.055v0.685V70.87c0,1.136,0.919,2.055,2.055,2.055
			h0.685h46.58h0.685c1.135,0,2.057-0.919,2.057-2.055V42.785V42.1C60.279,40.965,59.359,40.046,58.225,40.046z M57.54,70.186H10.96
			V42.786h46.58V70.186z"/>
	</g>
</g>
</svg>
