<?xml version="1.0" encoding="utf-8"?>
<!-- Generator: Adobe Illustrator 16.0.0, SVG Export Plug-In . SVG Version: 6.00 Build 0)  -->
<!DOCTYPE svg PUBLIC "-//W3C//DTD SVG 1.1//EN" "http://www.w3.org/Graphics/SVG/1.1/DTD/svg11.dtd">
<svg version="1.1" id="Layer_1" xmlns="http://www.w3.org/2000/svg" xmlns:xlink="http://www.w3.org/1999/xlink" x="0px" y="0px"
	 width="100px" height="100px" viewBox="0 0 100 100" enable-background="new 0 0 100 100" xml:space="preserve">
<g id="Captions">
</g>
<path fill="#505050" d="M57.699,71.141H43.783c-5.713,0-5.801-4.121-5.845-6.103c-0.026-1.254-0.073-2.054-0.501-2.581
	c-4.16-5.139-6.683-8.701-6.683-14.821c0-11.739,9.905-18.073,19.225-18.073c9.363,0,18.812,5.59,18.812,18.073
	c0,6.126-2.525,9.688-6.686,14.818c-0.785,0.97-2.203,1.112-3.164,0.334c-0.967-0.782-1.116-2.2-0.334-3.164
	c4.039-4.985,5.684-7.465,5.684-11.988c0-10.02-7.711-13.573-14.312-13.573c-7.318,0-14.725,4.661-14.725,13.573
	c0,4.521,1.644,7.003,5.678,11.988c1.427,1.761,1.474,3.813,1.506,5.317c0.012,0.533,0.026,1.336,0.144,1.565
	c0,0.007,0.299,0.134,1.201,0.134h13.916c1.242,0,2.25,1.008,2.25,2.25C59.949,70.132,58.941,71.141,57.699,71.141z"/>
<path fill="#505050" d="M44.949,57.658c-0.621,0-1.242-0.258-1.688-0.762c-5.836-6.615-2.607-14.461-0.085-17.688
	c0.765-0.979,2.177-1.157,3.158-0.387c0.979,0.765,1.151,2.177,0.39,3.155c-0.231,0.302-4.875,6.516-0.088,11.941
	c0.823,0.933,0.732,2.354-0.199,3.176C46.01,57.475,45.479,57.658,44.949,57.658z"/>
<path fill="#505050" d="M57.312,77.732h-15.09c-1.242,0-2.25-1.008-2.25-2.25s1.008-2.25,2.25-2.25h15.09
	c1.242,0,2.25,1.008,2.25,2.25S58.555,77.732,57.312,77.732z"/>
<path fill="#505050" d="M56.041,83.979H43.508c-1.242,0-2.25-1.008-2.25-2.25s1.008-2.25,2.25-2.25h12.533
	c1.242,0,2.25,1.008,2.25,2.25S57.283,83.979,56.041,83.979z"/>
<path fill="#505050" d="M49.774,26.029c-1.242,0-2.25-1.008-2.25-2.25v-5.508c0-1.242,1.008-2.25,2.25-2.25s2.25,1.008,2.25,2.25
	v5.508C52.023,25.021,51.018,26.029,49.774,26.029z"/>
<path fill="#505050" d="M33.33,32.498c-0.577,0-1.151-0.22-1.591-0.659l-3.891-3.896c-0.879-0.882-0.879-2.306,0-3.182
	c0.879-0.882,2.303-0.876,3.182,0l3.891,3.896c0.879,0.882,0.879,2.306,0,3.182C34.481,32.278,33.904,32.498,33.33,32.498z"/>
<path fill="#505050" d="M66.67,32.498c-0.574,0-1.15-0.22-1.591-0.659c-0.879-0.876-0.879-2.3,0-3.182l3.892-3.896
	c0.875-0.876,2.299-0.882,3.182,0c0.88,0.876,0.88,2.3,0,3.182l-3.891,3.896C67.82,32.278,67.247,32.498,66.67,32.498z"/>
</svg>
