<?xml version="1.0" encoding="utf-8"?>
<!-- Generator: Adobe Illustrator 16.0.0, SVG Export Plug-In . SVG Version: 6.00 Build 0)  -->
<!DOCTYPE svg PUBLIC "-//W3C//DTD SVG 1.1//EN" "http://www.w3.org/Graphics/SVG/1.1/DTD/svg11.dtd">
<svg version="1.1" id="Layer_1" xmlns="http://www.w3.org/2000/svg" xmlns:xlink="http://www.w3.org/1999/xlink" x="0px" y="0px"
	 width="100px" height="100px" viewBox="0 0 100 100" enable-background="new 0 0 100 100" xml:space="preserve">
<g>
	<path fill="#FFFFFF" d="M41.119,39.64c0,3.268-2.652,5.921-5.921,5.921l0,0c-3.269,0-5.921-2.653-5.921-5.921v-8.881
		c0-3.269,2.652-5.921,5.921-5.921l0,0c3.269,0,5.921,2.652,5.921,5.921V39.64z"/>
	<polygon fill="#FFFFFF" points="94.406,64.594 90.254,60.361 87.005,63.672 87.005,24.836 81.084,24.836 81.084,63.672 
		77.835,60.361 73.684,64.594 79.893,70.914 79.876,70.933 84.027,75.164 84.045,75.146 84.062,75.164 88.214,70.933 88.195,70.914 
			"/>
	<path fill="#FFFFFF" d="M35.198,8.555c13.059,0,23.683,10.625,23.683,23.683v35.525c0,13.059-10.624,23.683-23.683,23.683
		c-13.06,0-23.684-10.624-23.684-23.683V32.237C11.515,19.18,22.139,8.555,35.198,8.555 M35.198,2.633
		c-16.351,0-29.604,13.254-29.604,29.604v35.525c0,16.345,13.254,29.604,29.604,29.604c16.352,0,29.604-13.26,29.604-29.604V32.237
		C64.802,15.889,51.55,2.633,35.198,2.633L35.198,2.633z"/>
</g>
</svg>
